<svg width="current" height="current" viewBox="0 0 24 24" fill="none" xmlns="http://www.w3.org/2000/svg">
<mask id="path-1-inside-1_26_702" fill="white">
<path d="M20.831 12.1364C20.831 14.187 20.1151 16.1743 18.8053 17.7594C17.4955 19.3446 15.6728 20.4297 13.6478 20.8297C11.6228 21.2298 9.52072 20.9201 7.69983 19.9534C5.87895 18.9868 4.45186 17.4229 3.66174 15.5284C2.87162 13.6338 2.76735 11.5257 3.3667 9.56338C3.96604 7.60102 5.23192 5.90577 6.94864 4.76649C8.66536 3.6272 10.7267 3.11437 12.7814 3.31537C14.8362 3.51637 16.7572 4.41876 18.2171 5.8688L16.6859 7.38968C15.5802 6.2915 14.1253 5.60808 12.5692 5.45585C11.013 5.30363 9.4519 5.69202 8.15176 6.55485C6.85161 7.41768 5.89291 8.70156 5.439 10.1877C4.98509 11.6739 5.06406 13.2704 5.66245 14.7053C6.26084 16.1401 7.34163 17.3245 8.72067 18.0566C10.0997 18.7887 11.6917 19.0232 13.2253 18.7202C14.7589 18.4172 16.1393 17.5955 17.1313 16.395C18.1233 15.1944 18.6655 13.6894 18.6655 12.1364H20.831Z"/>
</mask>
<path d="M20.831 12.1364C20.831 14.187 20.1151 16.1743 18.8053 17.7594C17.4955 19.3446 15.6728 20.4297 13.6478 20.8297C11.6228 21.2298 9.52072 20.9201 7.69983 19.9534C5.87895 18.9868 4.45186 17.4229 3.66174 15.5284C2.87162 13.6338 2.76735 11.5257 3.3667 9.56338C3.96604 7.60102 5.23192 5.90577 6.94864 4.76649C8.66536 3.6272 10.7267 3.11437 12.7814 3.31537C14.8362 3.51637 16.7572 4.41876 18.2171 5.8688L16.6859 7.38968C15.5802 6.2915 14.1253 5.60808 12.5692 5.45585C11.013 5.30363 9.4519 5.69202 8.15176 6.55485C6.85161 7.41768 5.89291 8.70156 5.439 10.1877C4.98509 11.6739 5.06406 13.2704 5.66245 14.7053C6.26084 16.1401 7.34163 17.3245 8.72067 18.0566C10.0997 18.7887 11.6917 19.0232 13.2253 18.7202C14.7589 18.4172 16.1393 17.5955 17.1313 16.395C18.1233 15.1944 18.6655 13.6894 18.6655 12.1364H20.831Z" fill="current" stroke="current" stroke-width="2" mask="url(#path-1-inside-1_26_702)"/>
<path d="M19.4106 9.08414L13.4823 7.34002L17.9672 3.11288L19.4106 9.08414Z" fill="current"/>
</svg>
